<?xml version="1.0" standalone="no"?>
<!DOCTYPE svg PUBLIC "-//W3C//DTD SVG 20010904//EN"
 "http://www.w3.org/TR/2001/REC-SVG-20010904/DTD/svg10.dtd">
<svg version="1.0" xmlns="http://www.w3.org/2000/svg"
 width="260.000000pt" height="260.000000pt" viewBox="0 0 260.000000 260.000000"
 preserveAspectRatio="xMidYMid meet">
<metadata>
Created by potrace 1.11, written by Peter Selinger 2001-2013
</metadata>
<g transform="translate(0.000000,260.000000) scale(0.100000,-0.100000)"
fill="#000000" stroke="none">
<path d="M1095 2574 c-194 -35 -405 -123 -550 -231 -84 -63 -211 -187 -268
-263 -125 -166 -225 -405 -244 -580 -3 -33 -10 -63 -14 -66 -12 -7 -12 -271 0
-278 4 -3 11 -31 15 -63 17 -144 96 -352 190 -502 133 -210 372 -404 611 -496
184 -70 238 -79 465 -79 179 0 216 2 290 22 253 65 437 169 615 347 233 232
354 505 381 855 7 98 -15 294 -46 405 -156 559 -669 948 -1244 944 -66 0 -157
-7 -201 -15z m532 -509 c156 -247 289 -449 296 -447 7 2 86 39 177 83 91 43
176 81 188 84 49 9 94 -74 57 -105 -22 -18 -19 -29 29 -130 25 -50 48 -112 52
-138 16 -104 -53 -266 -133 -317 -18 -11 -32 -23 -33 -27 0 -4 17 -34 37 -67
27 -43 45 -61 65 -65 37 -7 63 -48 51 -80 -4 -14 -98 -125 -208 -247 -110
-122 -214 -238 -231 -258 l-31 -36 -319 -15 c-286 -14 -352 -14 -638 0 l-319
15 -31 36 c-17 20 -121 136 -231 258 -110 122 -204 233 -208 247 -12 32 14 73
51 80 23 5 94 112 507 766 264 419 488 774 498 790 15 25 23 29 53 26 36 -3
37 -4 321 -453z"/>
<path d="M863 1665 c-243 -385 -445 -708 -448 -718 -6 -15 0 -17 64 -17 71 0
75 1 239 87 92 48 375 191 629 318 l462 231 -252 400 -252 400 -442 -701z"/>
<path d="M2095 1548 c-55 -28 -101 -52 -103 -53 -4 -4 177 -293 187 -299 17
-11 70 35 90 77 37 76 32 133 -19 238 -24 49 -47 89 -50 88 -3 0 -50 -23 -105
-51z"/>
<path d="M1712 1365 c-85 -40 -156 -76 -159 -78 -23 -24 203 -287 247 -287 19
0 280 125 280 134 0 15 -194 306 -203 306 -7 0 -81 -34 -165 -75z"/>
<path d="M1100 1062 c-113 -60 -214 -113 -225 -120 -16 -9 39 -11 249 -12
l269 0 -7 68 c-8 73 -47 172 -68 172 -7 -1 -105 -49 -218 -108z"/>
<path d="M1514 1035 c15 -111 10 -105 77 -105 32 0 59 3 59 8 0 4 -32 39 -71
77 l-71 70 6 -50z"/>
<path d="M2065 972 l-70 -37 99 -3 c54 -1 101 -1 103 2 9 8 -32 71 -48 73 -7
1 -45 -14 -84 -35z"/>
<path d="M382 803 c104 -119 323 -361 336 -370 9 -6 63 -13 119 -15 l102 -3
-21 23 c-12 12 -31 22 -42 22 -31 0 -125 47 -172 85 -30 25 -57 64 -93 135
-48 93 -54 100 -82 100 -17 0 -36 8 -46 20 -13 15 -30 20 -67 20 -46 0 -48 -1
-34 -17z"/>
<path d="M810 705 c70 -70 122 -115 135 -115 11 0 43 10 71 21 l52 22 -61 93
-62 94 -125 0 -125 0 115 -115z"/>
<path d="M1086 808 c4 -7 25 -39 46 -70 l39 -58 114 57 c63 32 117 63 119 70
4 10 -30 13 -160 13 -129 0 -164 -3 -158 -12z"/>
<path d="M1530 618 c-74 -110 -137 -205 -139 -210 -3 -10 116 -7 121 3 2 3 93
96 203 207 l200 202 -125 0 -125 -1 -135 -201z"/>
<path d="M1869 617 l-196 -202 101 3 c56 2 109 9 118 15 13 9 232 251 336 370
14 16 10 17 -74 17 l-89 0 -196 -203z"/>
<path d="M1327 608 c-76 -38 -78 -40 -64 -61 8 -12 20 -32 27 -44 14 -21 16
-19 68 59 29 44 52 81 50 83 -2 2 -38 -15 -81 -37z"/>
<path d="M1098 498 c-27 -11 -48 -23 -48 -27 0 -3 12 -19 27 -35 21 -25 34
-31 84 -34 33 -2 59 -2 59 2 0 6 -71 117 -74 115 -1 0 -22 -10 -48 -21z"/>
</g>
</svg>
